<svg width="720" height="160" viewBox="0 0 720 160" fill="none" xmlns="http://www.w3.org/2000/svg">
  <rect x="8" y="12" width="136" height="136" rx="34" fill="#0B0B0B"/>
  <rect x="28" y="32" width="96" height="96" rx="24" fill="#111111" stroke="#232323" stroke-width="3"/>
  <circle cx="76" cy="80" r="32" stroke="#353535" stroke-width="6"/>
  <circle cx="76" cy="80" r="20" stroke="#4A4A4A" stroke-width="6"/>
  <path d="M87.5 80L67 92V68L87.5 80Z" fill="white"/>
  <path d="M76 44C85.0174 44 93.6657 47.5817 100.041 53.958C106.417 60.3343 110 68.9826 110 78" stroke="#E50914" stroke-width="7" stroke-linecap="round"/>
  <circle cx="105.5" cy="49.5" r="6.5" fill="#E50914"/>
  <path d="M188.704 116V45.6H218.336C225.893 45.6 232.293 46.9013 237.536 49.504C242.864 52.1067 246.875 55.776 249.568 60.512C252.261 65.248 253.608 70.784 253.608 77.12C253.608 83.2 252.261 88.6507 249.568 93.472C246.96 98.208 243.035 101.963 237.792 104.736C232.635 107.424 226.448 108.768 219.232 108.768H198.88V116H188.704ZM198.88 100.192H218.208C225.339 100.192 230.496 98.5067 233.68 95.136C236.949 91.68 238.584 86.9867 238.584 81.056C238.584 74.9547 236.907 70.2187 233.552 66.848C230.283 63.4773 225.168 61.792 218.208 61.792H198.88V100.192Z" fill="#F5F5F1"/>
  <path d="M268.009 116V45.6H313.129V61.792H278.185V73.824H309.665V89.248H278.185V116H268.009Z" fill="#F5F5F1"/>
  <path d="M339.594 117.536C332.464 117.536 326.085 115.979 320.458 112.864C314.831 109.749 310.393 105.397 307.146 99.808C303.984 94.1333 302.402 87.6267 302.402 80.288C302.402 72.9493 303.984 66.4853 307.146 60.896C310.393 55.2213 314.831 50.8267 320.458 47.712C326.085 44.5973 332.464 43.04 339.594 43.04C346.725 43.04 353.103 44.5973 358.73 47.712C364.357 50.8267 368.752 55.2213 371.914 60.896C375.161 66.4853 376.786 72.9493 376.786 80.288C376.786 87.6267 375.161 94.1333 371.914 99.808C368.752 105.397 364.357 109.749 358.73 112.864C353.103 115.979 346.725 117.536 339.594 117.536ZM339.594 100.448C345.69 100.448 350.597 98.4213 354.314 94.368C358.117 90.3147 360.018 85.6213 360.018 80.288C360.018 74.9547 358.117 70.2613 354.314 66.208C350.597 62.1547 345.69 60.128 339.594 60.128C333.455 60.128 328.506 62.1547 324.746 66.208C321.029 70.2613 319.17 74.9547 319.17 80.288C319.17 85.6213 321.029 90.3147 324.746 94.368C328.506 98.4213 333.455 100.448 339.594 100.448Z" fill="#F5F5F1"/>
  <path d="M389.25 116V45.6H420.29C426.754 45.6 432.381 46.688 437.17 48.864C442.077 50.9547 445.874 54.0267 448.562 58.08C451.25 62.048 452.594 66.8267 452.594 72.416C452.594 77.7493 451.293 82.4853 448.69 86.624C446.088 90.6773 442.333 93.8347 437.426 96.096L454.13 116H433.842L419.058 97.824H399.426V116H389.25ZM399.426 82.656H419.97C424.45 82.656 427.821 81.568 430.082 79.392C432.344 77.216 433.474 74.4 433.474 70.944C433.474 67.488 432.344 64.7147 430.082 62.624C427.821 60.5333 424.45 59.488 419.97 59.488H399.426V82.656Z" fill="#F5F5F1"/>
  <path d="M467.686 116V45.6H512.806V61.792H477.862V73.184H509.214V88.352H477.862V99.808H513.318V116H467.686Z" fill="#F5F5F1"/>
  <path d="M531.005 116L556.989 45.6H571.773L597.629 116H580.669L575.805 101.792H551.677L546.813 116H531.005ZM555.901 88.032H571.581L563.741 65.088L555.901 88.032Z" fill="#F5F5F1"/>
  <path d="M607.675 116V45.6H638.715C645.179 45.6 650.806 46.688 655.595 48.864C660.502 50.9547 664.299 54.0267 666.987 58.08C669.675 62.048 671.019 66.8267 671.019 72.416C671.019 77.7493 669.718 82.4853 667.115 86.624C664.513 90.6773 660.758 93.8347 655.851 96.096L672.555 116H652.267L637.483 97.824H617.851V116H607.675ZM617.851 82.656H638.395C642.875 82.656 646.246 81.568 648.507 79.392C650.769 77.216 651.899 74.4 651.899 70.944C651.899 67.488 650.769 64.7147 648.507 62.624C646.246 60.5333 642.875 59.488 638.395 59.488H617.851V82.656Z" fill="#F5F5F1"/>
</svg>
